<?xml version="1.0" standalone="no"?>
<!DOCTYPE svg PUBLIC "-//W3C//DTD SVG 20010904//EN"
 "http://www.w3.org/TR/2001/REC-SVG-20010904/DTD/svg10.dtd">
<svg version="1.0" xmlns="http://www.w3.org/2000/svg"
 width="303.000000pt" height="303.000000pt" viewBox="0 0 303.000000 303.000000"
 preserveAspectRatio="xMidYMid meet">
<metadata>
Created by potrace 1.11, written by Peter Selinger 2001-2013
</metadata>
<g transform="translate(0.000000,303.000000) scale(0.100000,-0.100000)"
fill="#000000" stroke="none">
<path d="M80 2635 l0 -345 345 0 345 0 0 345 0 345 -345 0 -345 0 0 -345z
m600 -5 l0 -250 -250 0 -250 0 0 250 0 250 250 0 250 0 0 -250z"/>
<path d="M280 2630 l0 -150 150 0 150 0 0 150 0 150 -150 0 -150 0 0 -150z"/>
<path d="M1270 2780 l0 -200 100 0 101 0 -3 -147 -3 -148 -47 -3 -48 -3 0 100
0 101 -100 0 -100 0 0 -51 0 -50 -47 3 -48 3 -3 98 -3 97 51 0 50 0 0 50 0 50
-150 0 -150 0 0 -50 0 -50 50 0 50 0 0 -50 0 -50 -50 0 -50 0 0 -100 0 -100
50 0 50 0 0 -45 0 -45 -145 0 -145 0 0 -49 0 -50 48 -3 47 -3 3 -47 3 -48
-100 0 -101 0 0 100 0 100 -250 0 -250 0 0 -50 0 -50 50 0 50 0 0 -50 0 -50
-50 0 -50 0 0 -100 0 -100 150 0 150 0 0 -200 0 -200 -50 0 -50 0 0 -50 0 -50
-50 0 -50 0 0 100 0 100 50 0 50 0 0 50 0 50 -100 0 -100 0 0 -345 0 -345 50
0 50 0 0 145 0 145 50 0 50 0 0 -94 0 -95 47 -3 48 -3 3 -47 3 -47 47 -3 c26
-2 71 -1 99 0 l53 4 0 49 0 49 -50 0 -50 0 0 45 0 45 150 0 150 0 0 50 0 50
45 0 45 0 0 -95 0 -95 -95 0 -95 0 0 -50 0 -50 48 -1 c26 0 68 0 95 1 l47 1 0
-100 0 -101 49 0 50 0 3 48 3 47 48 3 47 3 0 -100 0 -101 -100 0 -100 0 0
-250 0 -250 150 0 150 0 0 50 0 50 50 0 50 0 0 50 0 50 -50 0 -50 0 0 150 0
150 50 0 50 0 0 -100 0 -100 50 0 50 0 0 -50 0 -50 50 0 50 0 0 -100 0 -100
295 0 295 0 1 53 c0 28 0 96 0 150 l-1 97 50 0 50 0 0 -50 0 -50 150 0 150 0
0 100 0 100 50 0 50 0 0 100 0 100 50 0 50 0 0 -100 0 -100 150 0 150 0 0 100
0 100 -100 0 -100 0 0 50 0 50 50 0 50 0 0 100 0 100 50 0 50 0 0 45 0 45 -50
0 -50 0 0 100 0 100 -49 0 -50 0 -3 -47 -3 -48 -47 -3 -48 -3 0 50 0 51 -100
0 -100 0 0 50 0 50 50 0 50 0 0 50 0 50 100 0 100 0 0 -50 0 -50 100 0 100 0
0 100 0 100 -50 0 -50 0 0 50 0 50 -50 0 -50 0 0 -50 0 -50 -50 0 -50 0 0 50
0 50 -100 0 -100 0 0 50 0 50 100 0 100 0 0 50 0 50 50 0 50 0 0 50 0 50 50 0
50 0 0 100 0 100 -50 0 -50 0 0 -100 0 -100 -50 0 -50 0 0 100 0 100 -50 0
-50 0 0 -50 0 -50 -50 0 -50 0 0 50 0 50 -50 0 -50 0 0 -50 0 -50 -50 0 -50 0
0 50 0 50 -50 0 -50 0 1 148 c0 81 0 168 0 195 l-1 47 -50 0 -50 0 0 -150 0
-150 -45 0 -45 0 0 50 0 50 -50 0 -50 0 0 50 0 50 50 0 50 0 0 100 0 100 95 0
95 0 0 50 0 50 -94 0 -95 0 -3 -47 -3 -48 -97 -3 -98 -3 0 51 0 50 50 0 50 0
0 50 0 50 -50 0 -50 0 0 50 0 50 -150 0 -150 0 0 -50 0 -50 -50 0 -50 0 0 50
0 50 -50 0 -50 0 0 -200z m500 50 l0 -50 -50 0 -50 0 0 -50 0 -50 -50 0 -50 0
0 -50 0 -50 151 0 150 0 -3 -47 -3 -48 -147 -3 -148 -2 0 50 0 50 -50 0 -50 0
0 50 0 50 -50 0 -50 0 0 50 0 50 50 0 50 0 0 -50 0 -50 50 0 50 0 0 100 0 100
100 0 100 0 0 -50z m-700 -501 l0 -50 -47 3 -48 3 -3 48 -3 47 50 0 51 0 0
-51z m200 1 l0 -50 50 0 50 0 0 -95 0 -95 50 0 50 0 0 -50 0 -50 -150 0 -150
0 0 50 0 50 -50 0 -50 0 0 -100 0 -100 50 0 50 0 0 -50 0 -50 50 0 50 0 0 50
0 50 100 0 100 0 0 -50 0 -50 50 0 50 0 0 151 0 150 48 -3 47 -3 3 -47 3 -48
50 0 49 0 0 195 0 195 50 0 50 0 0 -50 0 -50 50 0 50 0 0 -45 0 -45 48 -1 c26
0 68 0 95 1 l47 1 0 -50 0 -51 -95 0 -95 0 0 50 0 50 -49 0 -49 0 -4 -52 c-1
-29 -2 -74 0 -100 l3 -47 47 -3 47 -3 2 -50 c1 -27 2 -71 2 -97 l1 -48 45 0
45 0 0 -100 0 -100 150 0 150 0 0 -50 0 -50 -245 0 -245 0 0 50 0 50 -50 0
-50 0 0 -50 0 -50 -49 0 -50 0 -3 -47 -3 -48 -47 -3 -48 -3 0 -50 0 -49 50 0
50 0 0 -50 0 -50 50 0 50 0 0 100 0 100 50 0 50 0 0 -50 0 -50 50 0 50 0 0 50
0 50 45 0 45 0 0 -50 0 -50 50 0 50 0 0 -50 0 -50 100 0 100 0 0 -50 0 -50
-50 0 -50 0 0 -45 0 -45 -50 0 -49 0 0 91 c0 50 -2 93 -4 96 -5 4 -178 6 -182
1 -4 -4 -7 -79 -6 -140 l1 -48 45 0 45 0 0 -50 0 -50 -45 0 -45 0 0 50 0 50
-100 0 -100 0 0 45 0 45 50 0 50 0 0 50 0 50 -49 0 -50 0 -3 -47 -3 -48 -47
-3 -48 -3 0 -45 0 -44 -200 0 -200 0 0 -50 0 -50 100 0 100 0 0 -50 0 -50
-100 0 -100 0 0 50 0 50 -50 0 -50 0 0 -50 0 -50 -50 0 -50 0 0 50 0 50 -51 0
-50 0 3 48 3 47 100 2 c55 1 121 2 148 2 l47 1 0 45 0 45 150 0 150 0 0 100 0
100 -50 0 -50 0 0 -50 0 -50 -50 0 -50 0 0 100 0 100 -50 0 -50 0 0 -100 0
-100 -50 0 -50 0 0 -50 0 -50 -97 3 -98 2 -3 47 -3 47 -47 3 -47 3 -2 98 -3
97 100 0 100 0 0 50 0 50 -144 0 -145 0 -3 -47 -3 -48 -47 -3 -48 -3 0 -50 0
-49 51 0 50 0 -3 -47 -3 -48 -97 -2 -98 -3 0 100 0 100 -50 0 -50 0 0 50 0 50
50 0 50 0 0 50 0 50 -50 0 -50 0 0 100 0 100 -50 0 -50 0 0 50 0 50 -100 0
-100 0 0 50 0 50 100 0 100 0 0 51 0 50 48 -3 47 -3 3 -47 3 -47 47 -3 47 -3
3 -47 3 -48 -50 0 -51 0 0 -50 0 -50 50 0 50 0 0 -100 0 -100 50 0 50 0 0 50
0 50 50 0 50 0 0 50 0 50 -50 0 -50 0 0 50 0 50 95 0 95 0 1 48 c0 26 1 70 2
97 l2 50 50 2 c28 1 71 2 97 2 l47 1 3 48 3 47 50 2 c28 1 71 2 98 2 l47 1 0
44 0 45 -47 3 -48 3 -3 48 -3 47 50 0 51 0 0 -50z m400 -45 l0 -95 -50 0 -50
0 0 95 0 95 50 0 50 0 0 -95z m590 -245 l0 -50 50 0 50 0 0 -50 0 -50 -50 0
-50 0 0 50 0 50 -50 0 -50 0 0 -50 0 -50 -51 0 -50 0 3 48 3 47 48 3 47 3 0
43 c0 23 3 46 7 49 3 4 26 7 50 7 l43 0 0 -50z m300 -100 l0 -50 -50 0 -50 0
0 50 0 50 50 0 50 0 0 -50z m-300 -200 l0 -50 -50 0 -50 0 0 43 c0 24 3 47 7
50 3 4 26 7 50 7 l43 0 0 -50z m300 -200 l0 -50 -50 0 -50 0 0 50 0 50 50 0
50 0 0 -50z m-200 -201 l0 -50 -47 3 -48 3 -3 48 -3 47 50 0 51 0 0 -51z
m-1980 -99 l0 -50 51 0 50 0 -3 -47 -3 -48 -47 -3 -48 -3 0 50 0 51 -50 0 -50
0 0 50 0 50 50 0 50 0 0 -50z m2180 -100 l0 -50 150 0 150 0 0 -45 0 -45 -150
0 -150 0 0 44 0 45 -47 3 -48 3 -3 48 -3 47 50 0 51 0 0 -50z m-592 -292 l3
-48 45 0 44 0 0 -50 0 -50 -95 0 -95 0 0 50 0 50 -50 0 -50 0 0 -49 0 -50 48
-3 47 -3 3 -47 3 -48 95 0 94 0 0 -100 0 -100 -45 0 -45 0 -1 -47 c0 -27 -1
-70 -2 -98 l-2 -50 -197 -3 -198 -2 0 100 0 100 -100 0 -100 0 0 50 0 50 150
0 150 0 0 50 0 50 -100 0 -100 0 0 50 0 50 100 0 100 0 0 50 0 50 -50 0 -50 0
0 50 0 49 198 -2 197 -2 3 -47z m492 -99 l0 -149 -149 0 -150 0 0 142 c0 78 2
145 5 149 2 5 70 8 149 8 l145 0 0 -150z m298 99 l3 -48 -100 0 -101 0 0 50 0
51 98 -3 97 -3 3 -47z m-1688 -398 l0 -50 -50 0 -50 0 0 50 0 50 50 0 50 0 0
-50z m1290 0 l0 -50 -50 0 -50 0 0 50 0 50 50 0 50 0 0 -50z"/>
<path d="M380 1940 l0 -50 50 0 50 0 0 50 0 50 -50 0 -50 0 0 -50z"/>
<path d="M1770 1940 l0 -50 50 0 50 0 0 50 0 50 -50 0 -50 0 0 -50z"/>
<path d="M870 1790 l0 -100 50 0 50 0 0 -50 0 -50 50 0 50 0 0 -50 0 -50 50 0
50 0 0 -50 0 -50 -50 0 -50 0 0 -50 0 -50 50 0 50 0 0 50 0 50 50 0 50 0 0 50
0 50 -50 0 -50 0 0 50 0 50 -50 0 -50 0 0 50 0 50 50 0 50 0 0 50 0 50 -100 0
-100 0 0 50 0 50 -50 0 -50 0 0 -100z"/>
<path d="M1270 1740 l0 -50 100 0 100 0 0 -50 0 -50 -50 0 -50 0 0 -100 0
-100 50 0 50 0 0 50 0 50 50 0 50 0 0 50 0 50 100 0 100 0 0 50 0 50 50 0 50
0 0 -50 0 -50 50 0 50 0 0 100 0 100 -200 0 -200 0 0 -50 0 -50 -50 0 -50 0 0
50 0 50 -100 0 -100 0 0 -50z"/>
<path d="M680 1540 l0 -50 50 0 50 0 0 50 0 50 -50 0 -50 0 0 -50z"/>
<path d="M1670 650 l0 -50 50 0 50 0 0 50 0 50 -50 0 -50 0 0 -50z"/>
<path d="M1670 450 l0 -50 50 0 50 0 0 -50 0 -50 50 0 50 0 0 50 0 50 -50 0
-50 0 0 50 0 50 -50 0 -50 0 0 -50z"/>
<path d="M2260 750 l0 -50 50 0 50 0 0 50 0 50 -50 0 -50 0 0 -50z"/>
<path d="M2060 2930 l0 -50 50 0 50 0 0 50 0 50 -50 0 -50 0 0 -50z"/>
<path d="M2270 2635 l0 -345 345 0 345 0 -2 343 -3 342 -342 3 -343 2 0 -345z
m590 -5 l0 -250 -250 0 -250 0 0 250 0 250 250 0 250 0 0 -250z"/>
<path d="M2460 2630 l0 -150 150 0 150 0 0 150 0 150 -150 0 -150 0 0 -150z"/>
<path d="M870 2830 l0 -50 50 0 50 0 0 50 0 50 -50 0 -50 0 0 -50z"/>
<path d="M1070 2830 l0 -50 50 0 50 0 0 50 0 50 -50 0 -50 0 0 -50z"/>
<path d="M2860 1840 l0 -50 50 0 50 0 0 50 0 50 -50 0 -50 0 0 -50z"/>
<path d="M85 787 c-3 -6 -4 -163 -3 -347 l3 -335 343 -3 342 -2 0 350 0 350
-340 0 c-264 0 -342 -3 -345 -13z m595 -337 l0 -250 -250 0 -250 0 0 250 0
250 250 0 250 0 0 -250z"/>
<path d="M280 450 l0 -150 150 0 150 0 0 150 0 150 -150 0 -150 0 0 -150z"/>
<path d="M2660 350 l0 -50 -50 0 -50 0 0 -50 0 -50 -50 0 -50 0 0 -50 0 -50
150 0 150 0 0 100 0 100 50 0 50 0 0 -50 0 -50 50 0 50 0 0 50 0 50 -50 0 -50
0 0 50 0 50 -100 0 -100 0 0 -50z"/>
<path d="M2260 150 l0 -50 50 0 50 0 0 50 0 50 -50 0 -50 0 0 -50z"/>
</g>
</svg>
