<?xml version="1.0" standalone="no"?>
<!DOCTYPE svg PUBLIC "-//W3C//DTD SVG 20010904//EN"
 "http://www.w3.org/TR/2001/REC-SVG-20010904/DTD/svg10.dtd">
<svg version="1.0" xmlns="http://www.w3.org/2000/svg"
 width="413.000000pt" height="413.000000pt" viewBox="0 0 413.000000 413.000000"
 preserveAspectRatio="xMidYMid meet">
<metadata>
Created by potrace 1.11, written by Peter Selinger 2001-2013
</metadata>
<g transform="translate(0.000000,413.000000) scale(0.100000,-0.100000)"
fill="#000000" stroke="none">
<path d="M364 3990 c-32 -20 -69 -70 -92 -122 -12 -28 -12 -28 -112 -28 l-100
0 0 -1835 0 -1835 1505 0 1505 0 0 687 0 688 -95 -95 -95 -95 0 -456 c0 -251
-3 -484 -6 -518 l-7 -61 -1308 0 -1309 0 2 1687 3 1688 173 1 174 2 -7 -37
c-4 -20 -17 -47 -31 -62 -48 -51 -20 -123 48 -121 51 1 85 59 59 100 -4 7 -3
36 4 65 l11 52 97 3 97 3 0 -36 c0 -23 -7 -41 -21 -53 -49 -41 -44 -111 11
-130 54 -19 109 34 89 86 -6 17 -6 44 1 79 l11 53 101 0 101 0 -7 -41 c-4 -27
-15 -49 -31 -61 -52 -40 -21 -121 46 -121 51 0 63 22 65 119 1 47 6 90 11 95
5 5 52 8 104 7 l94 -3 -3 -35 c-2 -19 -12 -42 -22 -50 -10 -8 -23 -26 -30 -38
-25 -51 32 -111 87 -91 36 13 57 54 45 87 -6 19 -6 46 0 80 l11 52 100 0 100
0 -6 -38 c-3 -23 -15 -49 -31 -65 -49 -49 -24 -117 43 -117 56 0 66 18 67 117
1 47 6 89 11 94 5 5 52 8 104 7 l94 -3 -3 -35 c-2 -19 -12 -42 -22 -51 -46
-39 -42 -100 9 -125 52 -26 118 35 94 88 -6 13 -5 41 1 74 l9 54 100 0 100 0
-6 -38 c-3 -23 -15 -49 -31 -65 -47 -47 -21 -120 42 -120 55 0 71 24 70 106
-2 119 -3 118 110 115 l97 -3 -3 -35 c-2 -20 -13 -45 -27 -60 -59 -62 -5 -147
73 -115 35 15 50 53 35 86 -5 13 -5 42 1 75 l10 55 96 -3 95 -3 5 -564 5 -564
93 98 92 97 0 539 0 539 -200 0 -200 0 -15 37 c-22 52 -61 100 -95 118 -17 9
-56 15 -97 15 -57 0 -75 -4 -106 -26 l-38 -25 -31 26 c-30 25 -37 27 -114 23
-69 -2 -86 -7 -107 -26 l-24 -23 -38 25 c-32 22 -49 26 -110 26 -61 0 -78 -4
-109 -25 l-38 -25 -30 25 c-26 22 -39 25 -108 25 -70 0 -82 -3 -109 -26 l-30
-25 -38 25 c-32 22 -49 26 -109 26 -60 0 -77 -4 -108 -25 l-38 -25 -30 25
c-26 22 -39 25 -108 25 -70 0 -82 -3 -109 -26 l-30 -25 -38 25 c-32 22 -49 26
-109 26 -59 0 -77 -4 -108 -25 l-36 -24 -36 24 c-49 33 -162 36 -210 5z m175
-59 c22 -30 25 -48 15 -75 -5 -13 -24 -16 -105 -16 -54 0 -99 2 -99 5 0 20 45
87 75 113 34 31 37 31 65 17 15 -8 38 -28 49 -44z m49 4 c5 -25 -11 -16 -43
23 l-30 37 35 -22 c19 -12 36 -29 38 -38z m231 -1 c23 -26 31 -43 27 -58 -3
-11 -6 -24 -6 -28 0 -5 -38 -8 -85 -8 -80 0 -86 2 -94 23 -11 28 14 73 59 104
38 26 51 22 99 -33z m424 22 c-30 -37 -43 -44 -43 -23 0 10 56 57 68 57 2 0
-9 -15 -25 -34z m146 -22 c23 -26 31 -43 27 -58 -3 -11 -6 -24 -6 -28 0 -5
-38 -8 -83 -8 -78 0 -84 2 -95 24 -13 28 11 69 59 103 37 26 51 21 98 -33z
m44 18 c10 -11 14 -22 10 -25 -5 -3 -22 10 -37 30 -21 25 -23 32 -10 25 11 -6
27 -19 37 -30z m539 -30 c13 -21 18 -41 14 -57 -6 -24 -9 -25 -90 -25 -86 0
-96 5 -96 47 0 20 35 63 68 85 24 16 27 16 55 0 15 -9 38 -32 49 -50z m32 29
c11 -12 16 -24 13 -28 -4 -3 -8 -4 -9 -2 -2 2 -16 19 -33 38 -22 24 -25 31
-10 23 11 -5 29 -20 39 -31z m379 5 c-15 -19 -31 -32 -37 -29 -5 4 5 19 23 35
42 38 48 35 14 -6z m168 -45 c45 -69 43 -71 -70 -71 -91 0 -100 2 -106 20 -10
31 2 55 46 95 l40 36 31 -18 c17 -10 44 -38 59 -62z m53 9 c33 -50 41 -80 22
-80 -8 0 -24 21 -36 48 -12 26 -33 60 -48 76 l-27 29 33 -19 c18 -10 43 -34
56 -54z m-2228 27 c-14 -18 -32 -50 -41 -70 -8 -20 -22 -37 -30 -37 -19 0 -19
4 1 43 18 35 73 97 86 97 5 0 -2 -15 -16 -33z m292 4 c-25 -33 -38 -38 -38
-17 0 13 36 44 53 45 5 1 -2 -12 -15 -28z m191 5 c12 -13 18 -26 13 -30 -5 -3
-19 8 -31 24 -26 36 -14 40 18 6z m91 -6 c-12 -17 -26 -27 -32 -24 -7 5 -1 16
16 31 37 31 42 29 16 -7z m134 9 c37 -29 56 -69 45 -96 -8 -21 -14 -23 -94
-23 -47 0 -85 3 -85 8 0 4 -3 17 -6 28 -4 16 4 33 31 63 42 46 69 51 109 20z
m56 3 c13 -10 21 -24 19 -31 -3 -7 -15 0 -34 19 -31 33 -21 41 15 12z m391 0
c-15 -27 -38 -45 -45 -33 -3 5 6 19 20 30 33 26 38 26 25 3z m116 3 c12 -9 31
-28 43 -44 16 -23 18 -35 10 -55 -9 -25 -13 -26 -90 -26 -75 0 -81 2 -91 24
-10 20 -8 30 10 55 26 36 59 61 81 61 9 0 25 -7 37 -15z m82 -31 c3 -17 0 -16
-23 5 -14 14 -26 29 -26 34 0 17 45 -20 49 -39z m79 16 c-20 -28 -38 -39 -38
-23 0 10 42 53 52 53 5 0 -1 -13 -14 -30z m287 0 c-19 -19 -31 -26 -34 -19 -2
7 6 21 19 31 36 29 46 21 15 -12z m149 -12 c39 -46 41 -50 26 -79 -9 -16 -22
-19 -91 -19 -76 0 -80 1 -89 26 -8 20 -6 32 10 55 51 71 94 76 144 17z m55 8
c7 -9 8 -17 2 -20 -5 -4 -19 8 -32 25 -20 29 -21 31 -2 21 11 -6 25 -18 32
-26z m-1679 -61 c0 -14 -4 -25 -10 -25 -5 0 -10 11 -10 25 0 14 5 25 10 25 6
0 10 -11 10 -25z m285 -16 c-7 -20 -8 -21 -17 -5 -5 9 -7 24 -4 33 10 26 29
-1 21 -28z m285 16 c0 -14 -4 -25 -10 -25 -11 0 -14 33 -3 43 11 11 13 8 13
-18z m285 -16 l-8 -24 -8 24 c-10 27 -2 48 13 33 6 -6 7 -20 3 -33z m288 4
c-3 -7 -9 -13 -14 -13 -11 0 -12 34 -2 43 9 10 22 -13 16 -30z m282 -4 c-8
-23 -8 -23 -15 -4 -9 26 -1 50 12 37 6 -6 7 -21 3 -33z m287 -1 c-4 -18 -6
-19 -14 -4 -12 22 -1 57 11 37 5 -7 6 -22 3 -33z m-1680 -204 c-4 -43 -10 -54
-25 -48 -13 5 -13 33 -1 72 8 25 29 5 26 -24z m288 4 c0 -18 -5 -40 -10 -48
-15 -25 -30 2 -23 43 7 47 33 51 33 5z m285 -10 c-9 -51 -8 -50 -27 -43 -10 4
-14 15 -11 33 7 44 12 52 29 52 13 0 15 -7 9 -42z m285 10 c0 -18 -5 -40 -10
-48 -15 -25 -30 2 -23 43 7 47 33 51 33 5z m286 -10 c-8 -48 -10 -53 -25 -43
-23 14 -9 85 16 85 13 0 14 -8 9 -42z m286 2 c-2 -19 -8 -39 -13 -44 -16 -17
-27 7 -22 47 4 28 9 37 22 35 12 -3 15 -12 13 -38z m284 -2 c-8 -49 -12 -56
-27 -41 -17 17 -2 83 18 83 13 0 14 -8 9 -42z m286 1 c-5 -43 -9 -50 -27 -43
-14 6 -14 26 1 72 9 28 29 5 26 -29z"/>
<path d="M3505 3171 c-22 -10 -89 -68 -148 -128 l-108 -109 81 -78 c51 -50 85
-76 95 -73 8 4 17 1 21 -5 4 -7 3 -8 -4 -4 -25 15 -10 -6 30 -42 23 -20 45
-36 50 -34 5 1 7 -2 3 -7 -3 -6 2 -19 12 -31 18 -21 39 -28 27 -8 -4 7 -3 8 5
4 6 -4 9 -11 6 -16 -8 -13 213 -232 227 -224 6 4 8 3 5 -3 -8 -13 39 -57 52
-49 7 5 8 0 5 -11 -6 -15 -4 -15 9 2 20 24 22 39 5 29 -8 -4 -10 -3 -5 2 5 5
14 9 20 9 7 1 11 7 9 14 -1 7 2 10 7 7 10 -7 87 71 84 84 -1 4 6 6 16 3 23 -6
77 58 91 107 30 108 4 152 -222 376 -147 145 -192 184 -223 193 -57 16 -104
13 -150 -8z m322 -443 c41 -18 85 -56 122 -108 32 -44 33 -66 9 -117 -22 -44
-119 -20 -180 44 -39 41 -71 118 -63 153 9 39 57 51 112 28z m-67 -232 c0 -2
-8 -10 -17 -17 -16 -13 -17 -12 -4 4 13 16 21 21 21 13z"/>
<path d="M1735 1009 c-29 -77 -94 -284 -90 -287 5 -5 276 87 287 97 4 4 -37
51 -92 106 -68 68 -101 94 -105 84z"/>
</g>
</svg>
